<?xml version="1.0" encoding="UTF-8" standalone="no"?>
<svg
   xmlns:dc="http://purl.org/dc/elements/1.1/"
   xmlns:cc="http://creativecommons.org/ns#"
   xmlns:rdf="http://www.w3.org/1999/02/22-rdf-syntax-ns#"
   xmlns:svg="http://www.w3.org/2000/svg"
   xmlns="http://www.w3.org/2000/svg"
   version="1.1"
   id="svg2"
   viewBox="0 0 100.00044 85.355389"
   height="24.089188mm"
   width="28.222345mm">
  <defs
     id="defs4">
    <clipPath
       id="clipPath4445"
       clipPathUnits="userSpaceOnUse">
      <path
         id="path4447"
         d="m -293.92633,1043.1002 a 50,50 0 0 1 0,-70.7107 50,50 0 0 1 70.71068,0 50,50 0 0 1 0,70.7107"
         style="opacity:1;fill:#ff0000;fill-opacity:1;stroke:none;stroke-width:0.73095196;stroke-linecap:round;stroke-linejoin:round;stroke-miterlimit:4;stroke-dasharray:2.92380786, 1.46190393;stroke-dashoffset:0;stroke-opacity:1" />
    </clipPath>
  </defs>
  <metadata
     id="metadata7">
    <rdf:RDF>
      <cc:Work
         rdf:about="">
        <dc:format>image/svg+xml</dc:format>
        <dc:type
           rdf:resource="http://purl.org/dc/dcmitype/StillImage" />
        <dc:title></dc:title>
      </cc:Work>
    </rdf:RDF>
  </metadata>
  <g
     transform="translate(308.57141,-957.74481)"
     id="layer1">
    <path
       d="m -293.92675,1043.1002 a 50,50 0 0 1 0,-70.71073 50,50 0 0 1 70.71068,0 50,50 0 0 1 0,70.71073"
       id="path4136"
       style="opacity:1;fill:#1a1a1a;fill-opacity:1;stroke:none;stroke-width:0.73095196;stroke-linecap:round;stroke-linejoin:round;stroke-miterlimit:4;stroke-dasharray:2.92380786, 1.46190393;stroke-dashoffset:0;stroke-opacity:1" />
    <g
       clip-path="url(#clipPath4445)"
       style="stroke:#73c82c;stroke-width:3;stroke-linecap:round;stroke-linejoin:round;stroke-miterlimit:4;stroke-dasharray:none;stroke-opacity:1"
       id="g4305">
      <path
         style="fill:none;fill-rule:evenodd;stroke:#73c82c;stroke-width:3;stroke-linecap:round;stroke-linejoin:round;stroke-miterlimit:4;stroke-dasharray:none;stroke-dashoffset:0;stroke-opacity:1"
         d="m -258.59905,956.52398 0,51.13902 53.15928,0"
         id="path4179" />
      <path
         style="fill:none;fill-rule:evenodd;stroke:#73c82c;stroke-width:3;stroke-linecap:round;stroke-linejoin:round;stroke-miterlimit:4;stroke-dasharray:none;stroke-dashoffset:0;stroke-opacity:1"
         d="m -222.46801,971.48242 -36.16074,36.16078 37.58928,37.5893"
         id="path4179-6" />
      <path
         style="fill:none;fill-rule:evenodd;stroke:#73c82c;stroke-width:3;stroke-linecap:round;stroke-linejoin:round;stroke-miterlimit:4;stroke-dasharray:none;stroke-dashoffset:0;stroke-opacity:1"
         d="m -294.76661,971.48239 36.16074,36.16071 -37.58928,37.5893"
         id="path4179-6-7" />
      <path
         style="fill:none;fill-rule:evenodd;stroke:#73c82c;stroke-width:3;stroke-linecap:round;stroke-linejoin:round;stroke-miterlimit:4;stroke-dasharray:none;stroke-dashoffset:0;stroke-opacity:1"
         d="m -258.61682,1007.7034 -53.15923,0"
         id="path4179-5" />
      <path
         style="fill:none;fill-rule:evenodd;stroke:#73c82c;stroke-width:3;stroke-linecap:round;stroke-linejoin:round;stroke-miterlimit:4;stroke-dasharray:none;stroke-dashoffset:0;stroke-opacity:1"
         d="m -239.04294,960.48575 -19.57005,47.24635 49.11277,20.3431"
         id="path4179-3" />
      <path
         style="fill:none;fill-rule:evenodd;stroke:#73c82c;stroke-width:3;stroke-linecap:round;stroke-linejoin:round;stroke-miterlimit:4;stroke-dasharray:none;stroke-dashoffset:0;stroke-opacity:1"
         d="m -258.58891,1007.6779 -49.11277,-20.34314"
         id="path4179-3-5" />
      <path
         style="fill:none;fill-rule:evenodd;stroke:#73c82c;stroke-width:3;stroke-linecap:round;stroke-linejoin:round;stroke-miterlimit:4;stroke-dasharray:none;stroke-dashoffset:0;stroke-opacity:1"
         d="m -211.36003,988.13691 -47.2463,19.57009"
         id="path4179-6-6" />
      <path
         style="fill:none;fill-rule:evenodd;stroke:#73c82c;stroke-width:3;stroke-linecap:round;stroke-linejoin:round;stroke-miterlimit:4;stroke-dasharray:none;stroke-dashoffset:0;stroke-opacity:1"
         d="m -305.84844,1027.2693 47.2463,-19.5701 -20.3432,-49.11285"
         id="path4179-6-6-2" />
    </g>
    <path
       d="m -286.85568,1043.0939 a 40,44.321609 0 0 1 0,-62.68023 40,44.321609 0 0 1 56.56854,0 40,44.321609 0 0 1 0,62.68023"
       id="path4136-9"
       style="opacity:1;fill:#333333;fill-opacity:1;stroke:none;stroke-width:3;stroke-linecap:round;stroke-linejoin:round;stroke-miterlimit:4;stroke-dasharray:12, 6;stroke-dashoffset:0;stroke-opacity:1" />
    <path
       id="path4303"
       d="m -262.70138,1010.4197 -14.5769,-32.641 23.07863,27.376 z"
       style="fill:#e6e6e6;fill-opacity:1;fill-rule:evenodd;stroke:none;stroke-width:1px;stroke-linecap:butt;stroke-linejoin:miter;stroke-opacity:1" />
    <circle
       r="7.5"
       cy="1007.6046"
       cx="-258.60159"
       id="path4301"
       style="opacity:1;fill:#999999;fill-opacity:1;stroke:none;stroke-width:3;stroke-linecap:round;stroke-linejoin:round;stroke-miterlimit:4;stroke-dasharray:12, 6;stroke-dashoffset:0;stroke-opacity:1" />
    <g
       style="opacity:0.15"
       id="g4259"
       transform="matrix(0.0971939,0,0,-0.0971939,-281.9898,1030.5551)">
      <g
         id="g4261"
         transform="scale(0.1,0.1)">
        <path
           d="m 1059.96,91.8203 93.07,0 0,433.1487 -93.07,0 0,-52.801 -1.79,0 c -24.16,36.695 -73.385,64.437 -137.822,64.437 -140.504,0 -229.106,-121.71 -229.106,-228.21 0,-111.868 82.336,-228.2114 224.633,-228.2114 59.066,0 112.765,25.0584 142.295,64.4374 l 1.79,0 0,-52.8007 z M 789.688,308.395 c 0,77.859 62.644,140.507 137.82,140.507 73.382,0 136.032,-62.648 136.032,-140.507 0,-77.86 -62.65,-140.504 -136.032,-140.504 -75.176,0 -137.82,62.644 -137.82,140.504 z m 490.422,-216.5747 93.08,0 0,242.5277 c 0,70.699 46.53,109.183 106.5,109.183 61.75,0 102.91,-32.218 102.91,-110.972 l 0,-240.7387 93.08,0 0,261.3207 c 0,107.394 -76.97,183.464 -168.25,183.464 -59.07,0 -106.5,-25.953 -132.45,-66.226 l -1.79,0 0,54.59 -93.08,0 0,-433.1487 z m 483.26,345.4457 52.8,0 0,-187.938 c 0,-90.387 44.75,-123.5 140.51,-169.1444 l 41.17,73.3864 -50.12,28.637 c -27.74,16.109 -38.48,37.59 -38.48,84.125 l 0,170.934 74.28,0 0,87.703 -74.28,0 0,140.508 -93.08,-25.954 0,-114.554 -52.8,0 0,-87.703 z m 461.78,-357.0824 101.13,234.4764 1.79,0 101.13,-234.4764 167.35,444.7854 -100.23,0 -76.96,-234.473 -1.79,0 -90.39,207.625 -90.39,-207.625 -1.79,0 -76.97,234.473 -100.23,0 167.35,-444.7854 z m 411.68,228.2114 c 0,-114.551 87.7,-228.2114 238.94,-228.2114 151.25,0 238.95,113.6604 238.95,228.2114 0,114.55 -87.7,228.21 -238.95,228.21 -151.24,0 -238.94,-113.66 -238.94,-228.21 z m 98.44,0 c 0,77.859 59.06,140.507 140.5,140.507 81.44,0 140.51,-62.648 140.51,-140.507 0,-77.86 -59.07,-140.504 -140.51,-140.504 -81.44,0 -140.5,62.644 -140.5,140.504 z m 474.31,-216.5747 93.08,0 0,286.3787 c 0,39.379 30.42,65.332 64.43,65.332 8.95,0 25.95,-5.371 34.9,-12.527 l 33.12,92.176 c -12.53,8.054 -30.43,13.425 -51.01,13.425 -37.59,0 -69.81,-23.269 -85.02,-59.066 l -1.79,0 0,47.43 -87.71,0 0,-433.1487 z m 287.27,345.4457 52.8,0 0,-187.938 c 0,-90.387 44.74,-123.5 140.5,-169.1444 l 41.17,73.3864 -50.12,28.637 c -27.74,16.109 -38.48,37.59 -38.48,84.125 l 0,170.934 74.28,0 0,87.703 -74.28,0 0,140.508 -93.07,-25.954 0,-114.554 -52.8,0 0,-87.703 z m 649.71,-207.625 c -32.21,-42.957 -75.17,-67.121 -125.29,-67.121 -65.33,0 -127.08,47.429 -132.45,113.656 l 359.77,0 0,17.004 c 0,169.144 -134.24,243.425 -224.63,243.425 -151.25,0 -238.95,-113.66 -238.95,-228.21 0,-114.551 87.7,-228.2114 238.95,-228.2114 77.86,0.8945 149.45,40.2734 201.36,105.6054 l -78.76,43.852 z m -257.74,123.5 c 15.22,64.437 63.54,101.129 122.61,101.129 59.06,0 108.29,-34.903 127.97,-101.129 l -250.58,0 z m 470.73,-261.3207 93.08,0 0,242.5277 c 0,70.699 46.54,109.183 106.5,109.183 61.75,0 102.91,-32.218 102.91,-110.972 l 0,-240.7387 93.08,0 0,261.3207 c 0,107.394 -76.97,183.464 -168.25,183.464 -59.07,0 -106.5,-25.953 -132.45,-66.226 l -1.79,0 0,54.59 -93.08,0 0,-433.1487"
           style="fill:#ffffff;fill-opacity:1;fill-rule:nonzero;stroke:none"
           id="path4263" />
        <path
           d="m 94.9961,658.254 264.8169,0 L 201.57,451.57 c 27.262,10.246 50.328,16.5 82.438,19.957 114.765,12.36 175.918,-67.32 175.918,-143.75 0,-71.05 -56.059,-143.164 -143.254,-143.164 -55.977,0 -116.18,34.438 -156.008,72.114 L 63.7813,179.223 C 129.445,108.176 213.41,80.1836 304.91,80.1836 c 180.852,0 279.887,129.1794 279.887,251.8984 0,120.566 -92.578,200.227 -187.309,204.531 l 187.309,233.598 -489.8009,0 0,-111.957"
           style="opacity:1;fill:#ffffff;fill-opacity:1;fill-rule:nonzero;stroke:none"
           id="path4265" />
      </g>
    </g>
  </g>
</svg>
